<svg width="16" height="17" viewBox="0 0 16 17" fill="none" xmlns="http://www.w3.org/2000/svg">
<path d="M7.99984 15.7409C12.0432 15.7409 15.3332 12.4512 15.3332 8.40755C15.3332 7.70961 15.2357 7.02181 15.0428 6.3631C14.9478 6.0392 14.6096 5.85315 14.2848 5.94819C13.9606 6.04293 13.7751 6.38235 13.8698 6.70626C14.0296 7.25351 14.1109 7.82613 14.1109 8.40755C14.1109 11.7772 11.3695 14.5187 7.99984 14.5187C4.63022 14.5187 1.88873 11.7772 1.88873 8.40755C1.88873 5.03794 4.63022 2.29644 7.99984 2.29644C9.22445 2.29644 10.4027 2.65451 11.4071 3.33172C11.6866 3.52045 12.0668 3.4463 12.2552 3.16671C12.4438 2.88681 12.3703 2.50696 12.0904 2.31837C10.8834 1.5045 9.46898 1.07422 7.99984 1.07422C3.95645 1.07422 0.666504 4.36386 0.666504 8.40755C0.666504 12.4512 3.95645 15.7409 7.99984 15.7409Z" fill="#FF3F3A"/>
<path d="M14.8617 1.93608L7.99971 8.79773L5.8044 6.60274C5.54399 6.34249 5.12211 6.34249 4.86169 6.60274C4.60144 6.86316 4.60144 7.28503 4.86169 7.54545L7.52836 10.2121C7.65873 10.3425 7.82898 10.4074 7.99971 10.4074C8.17045 10.4074 8.3407 10.3425 8.47107 10.2121L15.8044 2.87878C16.0647 2.61837 16.0647 2.19649 15.8044 1.93608C15.544 1.67582 15.1221 1.67582 14.8617 1.93608Z" fill="#FF3F3A"/>
</svg>
