<svg width="105" height="225" viewBox="0 0 105 225" fill="none" xmlns="http://www.w3.org/2000/svg">
<path d="M3.6972 58.7676C4.86448 59.6647 5.06494 61.2158 4.16492 62.387C3.2649 63.5581 1.71442 63.7637 0.547139 62.8667C-0.620145 61.9697 -0.820589 60.4185 0.0794277 59.2473C0.979444 58.0762 2.62719 57.9453 3.6972 58.7676Z" fill="#FFCF2D"/>
<path d="M17.1225 41.2979C18.2898 42.1949 18.4902 43.7461 17.5902 44.9172C16.6902 46.0884 15.1397 46.294 13.9724 45.397C12.8051 44.4999 12.6047 42.9488 13.5047 41.7776C14.4047 40.6065 16.0525 40.4756 17.1225 41.2979Z" fill="#FFCF2D"/>
<path d="M30.5478 23.8282C31.715 24.7252 31.9155 26.2764 31.0155 27.4475C30.1155 28.6187 28.565 28.8243 27.3977 27.9272C26.2304 27.0302 26.03 25.479 26.93 24.3079C27.755 23.2343 29.4778 23.0059 30.5478 23.8282Z" fill="#FFCF2D"/>
<path d="M4.84075 87.2774C6.00804 88.1744 6.20849 89.7256 5.30847 90.8967C4.40845 92.0679 2.85798 92.2735 1.6907 91.3765C0.523414 90.4794 0.322961 88.9283 1.22298 87.7571C2.12299 86.5859 3.67347 86.3804 4.84075 87.2774Z" fill="#FFCF2D"/>
<path d="M18.1908 69.9053C19.3581 70.8024 19.5586 72.3535 18.6586 73.5247C17.7586 74.6958 16.2081 74.9014 15.0408 74.0044C13.8735 73.1073 13.6731 71.5562 14.5731 70.385C15.4731 69.2139 17.0236 69.0083 18.1908 69.9053Z" fill="#FFCF2D"/>
<path d="M31.6161 52.4356C32.7834 53.3326 32.9839 54.8838 32.0839 56.0549C31.1838 57.2261 29.6334 57.4317 28.4661 56.5347C27.2988 55.6376 27.0984 54.0865 27.9984 52.9153C28.8984 51.7442 30.4489 51.5386 31.6161 52.4356Z" fill="#FFCF2D"/>
<path d="M45.0414 34.9659C46.2087 35.8629 46.4092 37.414 45.5092 38.5852C44.6091 39.7564 43.0587 39.962 41.8914 39.0649C40.7241 38.1679 40.5236 36.6167 41.4237 35.4456C42.2487 34.372 43.8741 34.0688 45.0414 34.9659Z" fill="#FFCF2D"/>
<path d="M1.65763 1.62604C2.82491 2.52308 3.02537 4.07421 2.12536 5.24537C1.22535 6.41653 -0.325128 6.62212 -1.49241 5.72509C-2.65969 4.82805 -2.86014 3.2769 -1.96013 2.10574C-1.13512 1.03218 0.490348 0.729005 1.65763 1.62604Z" fill="#FFCF2D"/>
<path d="M2.72601 30.2344C3.89329 31.1315 4.09374 32.6826 3.19372 33.8538C2.2937 35.0249 0.743231 35.2305 -0.424052 34.3335C-1.59133 33.4364 -1.79179 31.8853 -0.891769 30.7141C0.00824702 29.543 1.55873 29.3374 2.72601 30.2344Z" fill="#FFCF2D"/>
<path d="M16.1513 12.7647C17.3186 13.6617 17.519 15.2129 16.619 16.384C15.719 17.5552 14.1685 17.7608 13.0012 16.8638C11.834 15.9667 11.6335 14.4156 12.5335 13.2444C13.3585 12.1708 14.984 11.8677 16.1513 12.7647Z" fill="#FFCF2D"/>
<path d="M5.81243 115.812C6.97971 116.709 7.18016 118.26 6.28015 119.431C5.38013 120.602 3.82966 120.808 2.66237 119.911C1.49509 119.014 1.29464 117.462 2.19466 116.291C3.01967 115.218 4.74242 114.989 5.81243 115.812Z" fill="#FFCF2D"/>
<path d="M19.2377 98.3409C20.405 99.2379 20.6055 100.789 19.7054 101.96C18.8054 103.131 17.2549 103.337 16.0877 102.44C14.9204 101.543 14.7199 99.9917 15.6199 98.8206C16.52 97.6494 18.1677 97.5186 19.2377 98.3409Z" fill="#FFCF2D"/>
<path d="M32.5878 80.9688C33.7551 81.8658 33.9556 83.417 33.0555 84.5881C32.1555 85.7593 30.605 85.9649 29.4378 85.0679C28.2705 84.1708 28.07 82.6197 28.9701 81.4485C29.8701 80.2773 31.5178 80.1465 32.5878 80.9688Z" fill="#FFCF2D"/>
<path d="M46.0131 63.4991C47.1804 64.3961 47.3808 65.9473 46.4808 67.1184C45.5808 68.2896 44.0303 68.4952 42.8631 67.5981C41.6958 66.7011 41.4953 65.15 42.3953 63.9788C43.2954 62.8076 44.9431 62.6768 46.0131 63.4991Z" fill="#FFCF2D"/>
<path d="M59.4384 46.0293C60.6057 46.9264 60.8061 48.4775 59.9061 49.6487C59.0061 50.8198 57.4556 51.0254 56.2883 50.1284C55.1211 49.2314 54.9206 47.6802 55.8206 46.5091C56.6457 45.4355 58.3684 45.2071 59.4384 46.0293Z" fill="#FFCF2D"/>
<path d="M7.3485 148.038C8.21836 146.906 8.00896 145.286 6.88079 144.419C5.75261 143.552 4.13288 143.767 3.26302 144.899C2.39315 146.031 2.60255 147.651 3.73073 148.518C4.85891 149.385 6.47864 149.17 7.3485 148.038Z" fill="#FFCF2D"/>
<path d="M20.3061 126.949C21.4734 127.846 21.6738 129.397 20.7738 130.569C19.8738 131.74 18.3233 131.945 17.156 131.048C15.9887 130.151 15.7883 128.6 16.6883 127.429C17.5133 126.355 19.1388 126.052 20.3061 126.949Z" fill="#FFCF2D"/>
<path d="M33.7314 109.48C34.8987 110.377 35.0991 111.928 34.1991 113.099C33.2991 114.27 31.7486 114.476 30.5813 113.579C29.414 112.682 29.2136 111.13 30.1136 109.959C31.0136 108.788 32.5641 108.583 33.7314 109.48Z" fill="#FFCF2D"/>
<path d="M47.0815 92.1075C48.2488 93.0045 48.4492 94.5556 47.5492 95.7268C46.6492 96.898 45.0987 97.1036 43.9314 96.2065C42.7641 95.3095 42.5637 93.7583 43.4637 92.5872C44.3637 91.416 45.9142 91.2104 47.0815 92.1075Z" fill="#FFCF2D"/>
<path d="M60.9745 78.2571C61.8443 77.1252 61.6349 75.5047 60.5068 74.6377C59.3786 73.7707 57.7589 73.9855 56.889 75.1175C56.0191 76.2494 56.2285 77.8698 57.3567 78.7368C58.4849 79.6038 60.1046 79.389 60.9745 78.2571Z" fill="#FFCF2D"/>
<path d="M73.9321 57.168C75.0993 58.0651 75.2998 59.6162 74.3998 60.7873C73.4998 61.9585 71.9493 62.1641 70.782 61.2671C69.6147 60.37 69.4143 58.8189 70.3143 57.6477C71.1393 56.5742 72.7648 56.271 73.9321 57.168Z" fill="#FFCF2D"/>
<path d="M7.94915 173.027C9.11644 173.924 9.31688 175.476 8.41687 176.647C7.51685 177.818 5.96638 178.023 4.7991 177.126C3.63182 176.229 3.43136 174.678 4.33137 173.507C5.23139 172.336 6.78187 172.13 7.94915 173.027Z" fill="#FFCF2D"/>
<path d="M21.3745 155.558C22.5417 156.455 22.7422 158.006 21.8422 159.177C20.9422 160.348 19.3917 160.554 18.2244 159.657C17.0571 158.76 16.8567 157.209 17.7567 156.037C18.6567 154.866 20.2072 154.661 21.3745 155.558Z" fill="#FFCF2D"/>
<path d="M34.7997 138.088C35.967 138.985 36.1675 140.536 35.2675 141.707C34.3674 142.878 32.817 143.084 31.6497 142.187C30.4824 141.29 30.2819 139.739 31.182 138.568C32.007 137.494 33.6325 137.191 34.7997 138.088Z" fill="#FFCF2D"/>
<path d="M48.225 120.617C49.3923 121.514 49.5928 123.065 48.6928 124.237C47.7927 125.408 46.2423 125.613 45.075 124.716C43.9077 123.819 43.7072 122.268 44.6073 121.097C45.5073 119.926 47.0577 119.72 48.225 120.617Z" fill="#FFCF2D"/>
<path d="M61.5751 103.245C62.7424 104.142 62.9429 105.693 62.0428 106.865C61.1428 108.036 59.5924 108.241 58.4251 107.344C57.2578 106.447 57.0573 104.896 57.9574 103.725C58.8574 102.554 60.4078 102.348 61.5751 103.245Z" fill="#FFCF2D"/>
<path d="M75.0004 85.7754C76.1677 86.6725 76.3682 88.2236 75.4681 89.3948C74.5681 90.5659 73.0177 90.7715 71.8504 89.8745C70.6831 88.9775 70.4826 87.4263 71.3826 86.2552C72.2827 85.084 73.8331 84.8784 75.0004 85.7754Z" fill="#FFCF2D"/>
<path d="M88.4257 68.3057C89.593 69.2028 89.7935 70.7539 88.8934 71.9251C87.9934 73.0962 86.4429 73.3018 85.2757 72.4048C84.1084 71.5077 83.9079 69.9566 84.8079 68.7854C85.633 67.7119 87.2584 67.4087 88.4257 68.3057Z" fill="#FFCF2D"/>
<path d="M8.99554 201.463C10.1628 202.36 10.3633 203.911 9.46326 205.082C8.56324 206.253 7.01277 206.459 5.84548 205.562C4.6782 204.665 4.47775 203.114 5.37776 201.943C6.20278 200.869 7.92553 200.641 8.99554 201.463Z" fill="#FFCF2D"/>
<path d="M22.3456 184.091C23.5129 184.988 23.7134 186.539 22.8133 187.71C21.9133 188.881 20.3629 189.087 19.1956 188.19C18.0283 187.293 17.8278 185.742 18.7279 184.571C19.6279 183.399 21.2756 183.269 22.3456 184.091Z" fill="#FFCF2D"/>
<path d="M35.7709 166.621C36.9382 167.518 37.1387 169.069 36.2386 170.24C35.3386 171.412 33.7881 171.617 32.6209 170.72C31.4536 169.823 31.2531 168.272 32.1532 167.101C33.0532 165.93 34.7009 165.799 35.7709 166.621Z" fill="#FFCF2D"/>
<path d="M49.1962 149.15C50.3635 150.047 50.5639 151.599 49.6639 152.77C48.7639 153.941 47.2134 154.147 46.0462 153.249C44.8789 152.352 44.6784 150.801 45.5784 149.63C46.4035 148.557 48.1262 148.328 49.1962 149.15Z" fill="#FFCF2D"/>
<path d="M62.6215 131.681C63.7888 132.578 63.9892 134.129 63.0892 135.3C62.1892 136.471 60.6387 136.677 59.4715 135.78C58.3042 134.883 58.1037 133.332 59.0037 132.16C59.9038 130.989 61.5515 130.858 62.6215 131.681Z" fill="#FFCF2D"/>
<path d="M75.9716 114.309C77.1389 115.206 77.3393 116.757 76.4393 117.928C75.5393 119.099 73.9888 119.305 72.8215 118.408C71.6543 117.511 71.4538 115.96 72.3538 114.788C73.2539 113.617 74.9016 113.486 75.9716 114.309Z" fill="#FFCF2D"/>
<path d="M89.3969 96.8389C90.5642 97.736 90.7646 99.2871 89.8646 100.458C88.9646 101.629 87.4141 101.835 86.2469 100.938C85.0796 100.041 84.8791 98.4898 85.7791 97.3186C86.6791 96.1475 88.3269 96.0166 89.3969 96.8389Z" fill="#FFCF2D"/>
<path d="M102.822 79.3692C103.989 80.2662 104.19 81.8174 103.29 82.9885C102.39 84.1597 100.839 84.3653 99.6721 83.4683C98.5049 82.5712 98.3044 81.0201 99.2044 79.8489C100.029 78.7753 101.752 78.5469 102.822 79.3692Z" fill="#FFCF2D"/>
</svg>
